PathFileType	4	(X/Y/Z)	RBDS012\RBDS012runT45.trc
DataRate	CameraRate	NumFrames	NumMarkers	Units	OrigDataRate	OrigDataStartFrame	OrigNumFrames
150.000000	150.000000	4	33	mm	150.000000	2812	4500
Frame#	Time	L.ASIS			L.Heel.Bottom			L.Heel.Lateral			L.Heel.Top			L.Iliac.Crest			L.MT1			L.MT5			L.PSIS			L.Shank.Bottom.Lateral			L.Shank.Bottom.Medial			L.Shank.Top.Lateral			L.Shank.Top.Medial			L.Thigh.Bottom.Lateral			L.Thigh.Bottom.Medial			L.Thigh.Top.Lateral			L.Thigh.Top.Medial			R.ASIS			R.ASY			R.Heel.Bottom			R.Heel.Lateral			R.Heel.Top			R.Iliac.Crest			R.MT1			R.MT5			R.PSIS			R.Shank.Bottom.Lateral			R.Shank.Bottom.Medial			R.Shank.Top.Lateral			R.Shank.Top.Medial			R.Thigh.Bottom.Lateral			R.Thigh.Bottom.Medial			R.Thigh.Top.Lateral			R.Thigh.Top.Medial			
		X1	Y1	Z1	X2	Y2	Z2	X3	Y3	Z3	X4	Y4	Z4	X5	Y5	Z5	X6	Y6	Z6	X7	Y7	Z7	X8	Y8	Z8	X9	Y9	Z9	X10	Y10	Z10	X11	Y11	Z11	X12	Y12	Z12	X13	Y13	Z13	X14	Y14	Z14	X15	Y15	Z15	X16	Y16	Z16	X17	Y17	Z17	X18	Y18	Z18	X19	Y19	Z19	X20	Y20	Z20	X21	Y21	Z21	X22	Y22	Z22	X23	Y23	Z23	X24	Y24	Z24	X25	Y25	Z25	X26	Y26	Z26	X27	Y27	Z27	X28	Y28	Z28	X29	Y29	Z29	X30	Y30	Z30	X31	Y31	Z31	X32	Y32	Z32	X33	Y33	Z33	

2813	18.74666666666667	2214.13631587519	927.2074229212315	911.6601676489054	1684.645948976513	711.2407907757441	987.0775906707289	1676.686215473855	676.1360400578084	939.5512614711982	1722.461533163302	677.2637218249205	985.2072088893442	2186.703811477405	1010.42925661163	878.4643632547246	1572.767383036326	513.8659009847735	1045.077177371892	1592.420784329117	530.4863358625299	922.4125788123464	2052.402069320811	1002.036863736087	983.0848241195907	1765.851778677357	575.783128539751	926.0283946195633	1785.122839032373	619.9053929567485	955.7855600057883	1841.668706020693	557.144529378167	906.4103727205792	1860.823380478876	598.8191807352275	934.3044148435805	2118.690097790934	541.4430543872052	867.4648789897651	2056.494579436448	542.0904699889137	905.2008875878646	2108.174627775536	650.6712447733911	854.2757093439081	2050.330493649608	651.6760352785863	890.9893645364544	2202.378731894816	957.0099576703421	1184.207491686411	2333.437395532012	79.25514282343271	1087.013795043444	2135.388230622786	34.43529573360428	1080.98149204838	2157.289198842058	51.50488291659664	1117.158230966307	2150.60972497067	83.00486391974979	1076.972725906028	2153.969235640427	1012.992509726129	1213.607299909442	2362.69300851957	39.73501790486709	1041.073460499352	2331.352689750626	38.42883056668305	1158.297661338305	2042.097901629591	1000.644551549176	1088.153605574327	2238.600577428831	165.8907310880319	1136.407362711869	2198.770132807972	184.3823490955463	1109.118202322272	2256.740660073248	245.808865638081	1160.013036912171	2213.746056334328	261.2408097575986	1131.48039311604	2279.300354300045	579.1544527221895	1198.025751741247	2228.572425781095	554.0355859287017	1151.440102226704	2215.835145360164	667.4035401501918	1214.93956540765	2167.540375399134	643.9252419586549	1171.812838062581	
2814	18.75333333333333	2211.713253632093	922.642647349597	913.0273283965946	1703.711618157372	709.1506577822327	984.0736232572298	1696.609532780991	673.5775277432946	937.0646013552185	1741.981019593407	675.6827412836576	983.0114206817808	2183.734995872334	1005.525346148978	878.3628828640556	1593.866944274799	511.0224721116184	1043.239901294776	1614.605842505677	526.5764746219226	920.7878572149377	2049.717132371826	999.5727543732618	981.6429331214445	1786.775541079409	573.1396208412338	924.4218019762295	1806.567584153857	617.3301244215473	953.9420932935134	1862.48764847763	553.5880292650041	904.882850490981	1882.127998469437	595.2526382366899	932.5527593883614	2133.195221042791	539.0022698219922	866.1500139784059	2070.989110317526	536.5993705521188	903.6168111340885	2117.753236513001	647.6018067059956	853.3673120204389	2059.716188971057	645.7100865192632	889.6498140864099	2199.997294670028	956.1487080990385	1185.686775357875	2303.546205139613	78.82557872036182	1087.254537359652	2105.444076407908	35.22925888742223	1081.653520461916	2127.392947054107	52.31495790870716	1117.853857686712	2120.840450453989	83.80966696446119	1077.692075748216	2150.882075717075	1011.785023217528	1213.987645423443	2332.51287088543	39.81132178395974	1041.562150987337	2301.220670084297	38.90019893207814	1159.101178728282	2040.27861048809	999.7937217059997	1086.48505035829	2214.034140496952	165.9257823697898	1136.586327528257	2174.507722262022	186.2688052668002	1110.081230100111	2236.187916573848	244.9515903340548	1160.533877491732	2193.375788427899	262.4501086735634	1132.681909126141	2271.267509068262	575.9793169477423	1199.046085961671	2220.162013417752	551.8590416722745	1152.309323882267	2209.376982508727	665.3623369244773	1216.090103694194	2160.664088206373	642.7464253114678	1172.979838804295	
2815	18.76	2209.214127262568	919.2426278638109	914.1602998011139	1721.129871913319	704.9640225691694	981.1365261102538	1715.285298582822	668.9236413489281	934.7145325818733	1760.163332981735	672.4147921687282	980.9362650874111	2180.193938745736	1001.980235468581	878.2205553522848	1615.295237872338	505.1888824809233	1041.653268747432	1637.035555239279	519.8001274865873	919.4023728680978	2047.151387332883	998.1879421113067	980.8062977098749	1807.492965239464	569.2763836096815	922.9695540117581	1827.340135472929	613.6946343627629	952.2195834869462	1883.27803017828	549.5323070031907	903.5722293708914	1902.96650927642	591.3699524024563	931.0171533065508	2148.677288305339	538.2122226412076	864.9351870639128	2086.536415478255	532.5832783552861	901.9963689578614	2128.060852225547	645.8867894553183	852.5083841091127	2069.910916103081	640.9409957169802	888.2332201737843	2197.824751811913	955.8127646594421	1186.749009032578	2273.409487132657	78.94709406488273	1087.672537667892	2075.643870446461	35.82129782930851	1082.281663480749	2097.569308429867	52.94431483917922	1118.537767500297	2091.017452382324	84.41838361421634	1078.431388941075	2148.148494932491	1011.663170258259	1214.269839264635	2302.297417344336	40.50268573233966	1042.11563266996	2271.014004040415	39.75353435924676	1159.848008888136	2038.602662932817	999.7604713090094	1085.400542071528	2188.63502206598	165.8967722573816	1136.742398346785	2149.560492835308	187.9106616933165	1110.874371200589	2214.374193962082	243.8986535268995	1160.956849981503	2171.895646760609	263.2631248662107	1133.678546199453	2261.825174033033	572.7246314449646	1200.033493868777	2210.112398280093	549.7399480234276	1153.368639850485	2201.955717604367	663.4890319025488	1217.228181219261	2152.62799933089	641.9000278517182	1174.301964012546	
2816	18.76666666666667	2206.714380636019	917.142067655726	914.9681533076796	1736.796019344097	698.6688199454676	978.4160195689439	1732.585300227022	662.2049719006299	932.6157162868211	1776.8653913206	667.4548986907226	979.0634454058046	2176.210912554139	999.8562980890929	878.0248749015204	1637.019603883746	496.4516829920497	1040.373853732335	1659.5721895785	510.3410766444897	918.2981902337762	2044.759924274282	997.7765427405275	980.6090736979435	1827.808031559897	564.3112015883944	921.7228287528479	1847.215876158401	609.105757888006	950.6832423334857	1903.838790999023	545.1494748443309	902.5201077030683	1923.112111527759	587.3364163916162	929.7554843103138	2164.953598940777	539.207132013194	863.8435271434738	2102.990200861373	530.1975166247089	900.4011121664889	2138.964416074964	645.6455903146834	851.7358549598682	2080.820223206648	637.5098525891297	886.8132091758	2195.920011362025	955.874115945668	1187.378682913265	2243.140551694642	79.36731802281768	1088.154888663709	2045.876191467476	36.29442711041827	1082.796289318919	2067.750175600022	53.46244926501126	1119.12631027621	2061.133479320582	84.91390663485387	1079.088212707465	2145.848821516614	1012.457594318741	1214.457064647314	2272.078322471983	41.43385836871207	1042.642941685161	2240.751404442098	40.73271707525478	1160.449320931671	2037.075463101025	1000.446944770457	1084.948685614322	2162.467852307194	165.7925018589952	1136.817672229262	2123.973736016252	189.3049661101638	1111.43933630473	2191.378661113651	242.6753619637558	1161.225452772764	2149.364316375447	263.7139504790088	1134.420276344876	2250.980294657334	569.4362934358946	1200.931416591509	2198.46580458149	547.726243179556	1154.53656976355	2193.56572986052	661.7939229259515	1218.265643300398	2143.463357443325	641.3991902135881	1175.663497051465	
